# xmcd
#
# Track frame offsets:
#	183
#	14408
#	29403
#	49783
#	64208
#	82095
#	93033
#	107158
#	120008
#	133095
#	145520
#	160558
#	173833
#	186345
#
# Disc length: 2623 seconds
#
# Revision: 1
# Processed by: cddbd v1.4PL0 Copyright (c) Steve Scherf et al.
# Submitted via: audiograbber 1.81.02
#
DISCID=b00a3d0e
DTITLE=Tom Astor - Hier Riecht's Nach Freiheit
DYEAR=1900
DGENRE=Country
TTITLE0=Wer hat ein Herz, das nie bricht
TTITLE1=Ich hab Hunger auf ein Weib
TTITLE2=Der Feigling des Jahrhunderts
TTITLE3=Ein Mann ist schnell verloren
TTITLE4=Lucille
TTITLE5=Louise aus Louisiana
TTITLE6=Viel erlebt und viel versäumt
TTITLE7=Hier riecht's nach Freiheit
TTITLE8=Ich bin neu geboren
TTITLE9=Irrer Wahnsinns Superzahn
TTITLE10=Und dann träumt man von Las Vegas
TTITLE11=Mein Auto kennt schon den Heimweg
TTITLE12=Verdammte Radarfalle
TTITLE13=Highway Helden
EXTD=
EXTT0=
EXTT1=
EXTT2=
EXTT3=
EXTT4=
EXTT5=
EXTT6=
EXTT7=
EXTT8=
EXTT9=
EXTT10=
EXTT11=
EXTT12=
EXTT13=
PLAYORDER=
